<svg width="40" height="40" viewBox="0 0 40 40" fill="none" xmlns="http://www.w3.org/2000/svg">
<rect x="0.5" y="0.5" width="39" height="39" rx="4.5" stroke="#63A48D"/>
<path d="M20 20.0001V20.0085M16.6667 20.0001V20.0085M23.3333 20.0001V20.0085M12.5 26.6668L13.5833 23.4168C12.647 22.032 12.3083 20.3922 12.6302 18.8021C12.952 17.212 13.9126 15.7799 15.3331 14.772C16.7537 13.7642 18.5377 13.2492 20.3534 13.3228C22.1691 13.3965 23.8929 14.0537 25.2044 15.1723C26.5159 16.2909 27.3257 17.7948 27.4834 19.4043C27.6411 21.0138 27.1358 22.6195 26.0616 23.9228C24.9873 25.226 23.4172 26.1382 21.6432 26.4896C19.8691 26.8411 18.0118 26.6079 16.4167 25.8335L12.5 26.6668Z" stroke="#63A48D" stroke-width="1.5" stroke-linecap="round" stroke-linejoin="round"/>
</svg>
