<svg width="18" height="18" viewBox="0 0 18 18" fill="none" xmlns="http://www.w3.org/2000/svg">
<g clip-path="url(#clip0_959_9)">
<path d="M10.6875 15.1875H15.1875C15.7436 15.1875 16.2161 15.0621 16.6084 14.8435L10.6875 11.3116V15.1875ZM17.9044 12.9966C17.9685 12.7105 18.0012 12.4076 18.0012 12.0935V10.6872H14.0327L17.9033 12.9966M0.0984709 4.99472C0.0318157 5.29395 -0.00120161 5.59969 3.34008e-05 5.90625V7.3125H3.98366L0.0984709 4.99472ZM7.31253 2.8125H2.81253C2.26044 2.8125 1.79103 2.93625 1.40038 3.15169L7.31253 6.67856V2.8125ZM1.41838 14.8573C1.80538 15.0666 2.2686 15.1875 2.81253 15.1875H7.31253V11.3411L1.41838 14.8573ZM3.34008e-05 10.6875V12.0938C3.34008e-05 12.4175 0.0343459 12.7294 0.102127 13.0227L4.01685 10.6875H3.34008e-05ZM16.6261 3.16547C16.2307 2.94103 15.7517 2.8125 15.1875 2.8125H10.6875V6.70809L16.6261 3.16547ZM18 7.3125V5.90625C18 5.59856 17.9683 5.30184 17.9067 5.02116L14.0659 7.3125H18Z" fill="#2E3192"/>
<path d="M14.0659 7.3125L17.9066 5.02116C17.7306 4.21566 17.3019 3.54881 16.6261 3.16547L10.6875 6.70809V2.8125H10.125V7.875H18V7.3125H14.0659ZM0 10.125V10.6875H4.01681L0.102094 13.0227C0.288 13.8257 0.729563 14.4849 1.41834 14.8573L7.3125 11.3411V15.1875H7.875V10.125H0ZM18 10.125H10.125V15.1875H10.6875V11.3116L16.6084 14.8438C17.2893 14.4647 17.7232 13.8015 17.9032 12.9971L14.0327 10.6875H18V10.125ZM7.3125 2.8125V6.67856L1.40034 3.15169C0.716906 3.52856 0.280125 4.19063 0.0981563 4.99472L3.98362 7.3125H0V7.875H7.875V2.8125H7.3125Z" fill="#E6E7E8"/>
<path d="M10.125 7.875V2.8125H7.875V7.875H0V10.125H7.875V15.1875H10.125V10.125H18V7.875H10.125Z" fill="#BE1E2D"/>
<path d="M6.17009 7.31239L0.531024 3.94611C0.409806 4.12611 0.312493 4.32411 0.232056 4.53505L4.8859 7.31239H6.16924M17.7441 13.5252L13.0154 10.6874H11.7059L17.419 14.124C17.5514 13.9389 17.6606 13.7381 17.7441 13.5263M17.0772 3.48486L10.6788 7.31239L11.9779 7.31324L17.4991 4.00771C17.3759 3.78355 17.246 3.63899 17.0772 3.48486ZM0.509931 14.0272C0.636446 14.2199 0.788698 14.3944 0.962462 14.5459L7.33024 10.6874H6.0469L0.509931 14.0272Z" fill="#BE1E2D"/>
</g>
<defs>
<clipPath id="clip0_959_9">
<rect width="18" height="18" fill="white"/>
</clipPath>
</defs>
</svg>
