<svg width="190" height="35" viewBox="0 0 190 35" fill="none" xmlns="http://www.w3.org/2000/svg">
<path d="M85.3222 30.7923C85.2992 30.6967 85.263 30.6128 85.2136 30.5406C85.1641 30.4666 85.1023 30.4043 85.0281 30.3538C84.9557 30.3014 84.8709 30.2626 84.7738 30.2374C84.6784 30.2103 84.5733 30.1968 84.4585 30.1968C84.2112 30.1968 84.0002 30.2572 83.8253 30.3781C83.6522 30.4991 83.5197 30.6732 83.4279 30.9006C83.3378 31.128 83.2928 31.4024 83.2928 31.7236C83.2928 32.0485 83.3361 32.3264 83.4226 32.5574C83.5092 32.7884 83.6381 32.9653 83.8094 33.088C83.9807 33.2108 84.1936 33.2721 84.4479 33.2721C84.6722 33.2721 84.8586 33.2387 85.0069 33.172C85.1571 33.1052 85.2692 33.0104 85.3434 32.8877C85.4176 32.765 85.4547 32.6206 85.4547 32.4546L85.709 32.4816H84.4691V31.4096H86.8747V32.1784C86.8747 32.6838 86.7696 33.116 86.5595 33.4752C86.351 33.8325 86.0631 34.1068 85.6958 34.2982C85.3302 34.4877 84.9107 34.5824 84.4373 34.5824C83.9092 34.5824 83.4456 34.4678 83.0464 34.2386C82.6472 34.0094 82.3355 33.6827 82.1112 33.2586C81.8886 32.8345 81.7773 32.33 81.7773 31.7453C81.7773 31.2869 81.8453 30.8808 81.9813 30.527C82.1191 30.1733 82.3099 29.8746 82.5536 29.631C82.7974 29.3855 83.0791 29.2005 83.3988 29.076C83.7185 28.9496 84.0611 28.8865 84.4267 28.8865C84.7482 28.8865 85.0467 28.9334 85.3222 29.0272C85.5995 29.1193 85.8441 29.251 86.0561 29.4225C86.2698 29.5921 86.442 29.7934 86.5727 30.0262C86.7034 30.259 86.7829 30.5144 86.8112 30.7923H85.3222Z" fill="white"/>
<path d="M87.5616 34.5066V28.9623H89.9036C90.3063 28.9623 90.6587 29.0372 90.9607 29.187C91.2628 29.3368 91.4977 29.5524 91.6655 29.834C91.8333 30.1155 91.9172 30.453 91.9172 30.8465C91.9172 31.2435 91.8306 31.5783 91.6575 31.8508C91.4862 32.1234 91.2451 32.3291 90.9342 32.4681C90.6252 32.6071 90.264 32.6765 89.8507 32.6765H88.4518V31.507H89.5539C89.727 31.507 89.8745 31.4854 89.9964 31.4421C90.12 31.3969 90.2145 31.3257 90.2799 31.2282C90.347 31.1307 90.3805 31.0035 90.3805 30.8465C90.3805 30.6877 90.347 30.5586 90.2799 30.4594C90.2145 30.3583 90.12 30.2843 89.9964 30.2374C89.8745 30.1886 89.727 30.1643 89.5539 30.1643H89.0346V34.5066H87.5616ZM90.7408 31.9618L92.0973 34.5066H90.4971L89.1724 31.9618H90.7408Z" fill="white"/>
<path d="M97.8014 31.7344C97.8014 32.3517 97.684 32.8724 97.4491 33.2965C97.2141 33.7188 96.8971 34.0392 96.4979 34.2575C96.0988 34.4741 95.6537 34.5824 95.1626 34.5824C94.6681 34.5824 94.2212 34.4732 93.8221 34.2548C93.4247 34.0347 93.1085 33.7134 92.8736 33.2911C92.6404 32.8669 92.5239 32.3481 92.5239 31.7344C92.5239 31.1172 92.6404 30.5974 92.8736 30.1751C93.1085 29.751 93.4247 29.4306 93.8221 29.214C94.2212 28.9957 94.6681 28.8865 95.1626 28.8865C95.6537 28.8865 96.0988 28.9957 96.4979 29.214C96.8971 29.4306 97.2141 29.751 97.4491 30.1751C97.684 30.5974 97.8014 31.1172 97.8014 31.7344ZM96.286 31.7344C96.286 31.4024 96.2427 31.1226 96.1562 30.8952C96.0714 30.666 95.9451 30.4927 95.7773 30.3754C95.6113 30.2563 95.4064 30.1968 95.1626 30.1968C94.9189 30.1968 94.7131 30.2563 94.5453 30.3754C94.3793 30.4927 94.253 30.666 94.1665 30.8952C94.0817 31.1226 94.0393 31.4024 94.0393 31.7344C94.0393 32.0665 94.0817 32.3472 94.1665 32.5764C94.253 32.8038 94.3793 32.977 94.5453 33.0962C94.7131 33.2135 94.9189 33.2721 95.1626 33.2721C95.4064 33.2721 95.6113 33.2135 95.7773 33.0962C95.9451 32.977 96.0714 32.8038 96.1562 32.5764C96.2427 32.3472 96.286 32.0665 96.286 31.7344Z" fill="white"/>
<path d="M101.694 28.9623H103.167V32.5141C103.167 32.9364 103.068 33.3019 102.87 33.6105C102.674 33.9173 102.401 34.1547 102.049 34.3225C101.698 34.4886 101.29 34.5716 100.825 34.5716C100.357 34.5716 99.9472 34.4886 99.5957 34.3225C99.2442 34.1547 98.9705 33.9173 98.7744 33.6105C98.5801 33.3019 98.483 32.9364 98.483 32.5141V28.9623H99.956V32.3842C99.956 32.5556 99.9931 32.709 100.067 32.8444C100.141 32.9779 100.244 33.0826 100.375 33.1584C100.507 33.2342 100.657 33.2721 100.825 33.2721C100.995 33.2721 101.145 33.2342 101.275 33.1584C101.406 33.0826 101.509 32.9779 101.583 32.8444C101.657 32.709 101.694 32.5556 101.694 32.3842V28.9623Z" fill="white"/>
<path d="M103.867 34.5066V28.9623H106.209C106.612 28.9623 106.964 29.0435 107.266 29.2059C107.568 29.3684 107.803 29.5967 107.971 29.8908C108.139 30.185 108.223 30.5288 108.223 30.9223C108.223 31.3193 108.136 31.6632 107.963 31.9537C107.792 32.2443 107.551 32.4681 107.24 32.6251C106.931 32.7821 106.57 32.8606 106.156 32.8606H104.757V31.6911H105.859C106.033 31.6911 106.18 31.6604 106.302 31.5991C106.426 31.5359 106.52 31.4466 106.585 31.3311C106.653 31.2156 106.686 31.0793 106.686 30.9223C106.686 30.7635 106.653 30.6281 106.585 30.5162C106.52 30.4025 106.426 30.3159 106.302 30.2563C106.18 30.195 106.033 30.1643 105.859 30.1643H105.34V34.5066H103.867Z" fill="white"/>
<path fill-rule="evenodd" clip-rule="evenodd" d="M8.43655 8.6863L0 24.6407H4.21828L5.59477 22.0703H12.344L12.8768 24.6407H17.0951L13.8537 8.6863H8.43655ZM15.985 3.85564L9.54662 6.64768L9.94625 3.7227L16.5179 0L15.985 3.85564ZM69.3573 18.3033H77.3498V14.6692H69.3573V12.3204H79.348V8.6863H65.2279V24.6407H79.6144V21.0067H69.3573V18.3033V18.3033ZM86.8965 8.6863H82.767V24.6407H95.9547V21.0067H86.8965V8.6863ZM102.793 18.3033H110.785V14.6692H102.793V12.3204H112.783V8.6863H98.6632V24.6407H113.05V21.0067H102.793V18.3033V18.3033ZM129.479 19.1453C128.68 20.4305 127.081 21.0953 124.772 21.0953C121.131 21.0953 119.355 19.943 119.355 16.6192C119.355 13.2954 121.131 12.1874 124.772 12.1874C127.037 12.1874 128.635 12.8522 129.434 14.1374L132.676 12.0101C130.9 9.70561 128.102 8.42039 124.728 8.42039C119.133 8.42039 115.092 11.567 115.092 16.6192C115.092 21.6714 119.133 24.818 124.728 24.818C128.102 24.818 130.9 23.5328 132.676 21.2282L129.479 19.1453ZM134.496 12.3204H139.914V24.6407H144.087V12.3204H149.505V8.6863H134.452V12.3204H134.496ZM168.243 14.4033C168.243 12.409 166.955 8.6863 162.159 8.6863H152.213V24.6407H156.343V20.5192H160.161L163.092 24.6407H167.976L164.779 20.1203C167.31 19.1453 168.243 16.5749 168.243 14.4033ZM164.335 14.7578C164.335 14.8465 164.335 16.8408 162.47 16.8408H156.343V12.276H162.115C164.113 12.3204 164.335 14.0487 164.335 14.7578ZM180.365 8.42039C174.77 8.42039 170.729 11.6113 170.729 16.6192C170.729 21.6714 174.77 24.818 180.365 24.818C185.959 24.818 190 21.6271 190 16.6192C190 11.6113 185.959 8.42039 180.365 8.42039ZM185.737 16.6635C185.737 19.9873 183.961 21.1396 180.32 21.1396C176.679 21.1396 174.903 19.9873 174.903 16.6635C174.903 13.3397 176.679 12.2317 180.32 12.2317C183.961 12.1874 185.737 13.3397 185.737 16.6635ZM11.5892 18.4362H7.50409L10.4791 12.8522L11.5892 18.4362ZM37.2984 14.4476C37.6093 12.4533 36.9432 8.73061 32.1477 8.73061H22.2014L19.6261 24.685H23.7555L24.4216 20.5635H28.2402L30.5048 24.685H35.3891L32.9025 20.1646C35.6111 19.1453 36.9432 16.6192 37.2984 14.4476ZM33.3022 14.8022C33.3022 14.8908 32.9469 16.8851 31.082 16.8851H24.9544L25.7093 12.3204H31.4816C33.5242 12.3204 33.4354 14.0488 33.3022 14.8022ZM39.6962 12.3204H45.1133L43.1152 24.6407H47.2891L49.2872 12.3204H54.7044L55.2816 8.6863H40.229L39.6962 12.3204Z" fill="white"/>
</svg>
