<svg width="190" height="35" viewBox="0 0 190 35" fill="none" xmlns="http://www.w3.org/2000/svg">
<path d="M85.3222 30.7926C85.2992 30.6969 85.263 30.613 85.2136 30.5408C85.1641 30.4668 85.1023 30.4046 85.0281 30.354C84.9557 30.3017 84.8709 30.2629 84.7738 30.2376C84.6784 30.2105 84.5733 30.197 84.4585 30.197C84.2112 30.197 84.0002 30.2575 83.8253 30.3784C83.6522 30.4993 83.5197 30.6735 83.4279 30.9009C83.3378 31.1283 83.2928 31.4026 83.2928 31.7239C83.2928 32.0487 83.3361 32.3267 83.4226 32.5577C83.5092 32.7887 83.6381 32.9656 83.8094 33.0883C83.9807 33.211 84.1936 33.2724 84.4479 33.2724C84.6722 33.2724 84.8586 33.239 85.0069 33.1722C85.1571 33.1054 85.2692 33.0107 85.3434 32.8879C85.4176 32.7652 85.4547 32.6208 85.4547 32.4548L85.709 32.4819H84.4691V31.4098H86.8747V32.1787C86.8747 32.684 86.7696 33.1163 86.5595 33.4754C86.351 33.8328 86.0631 34.1071 85.6958 34.2984C85.3302 34.4879 84.9107 34.5827 84.4373 34.5827C83.9092 34.5827 83.4456 34.468 83.0464 34.2388C82.6472 34.0096 82.3355 33.683 82.1112 33.2588C81.8886 32.8347 81.7773 32.3303 81.7773 31.7455C81.7773 31.2871 81.8453 30.881 81.9813 30.5273C82.1191 30.1735 82.3099 29.8748 82.5536 29.6312C82.7974 29.3857 83.0791 29.2008 83.3988 29.0762C83.7185 28.9499 84.0611 28.8867 84.4267 28.8867C84.7482 28.8867 85.0467 28.9336 85.3222 29.0275C85.5995 29.1195 85.8441 29.2513 86.0561 29.4227C86.2698 29.5924 86.442 29.7936 86.5727 30.0264C86.7034 30.2593 86.7829 30.5146 86.8112 30.7926H85.3222Z" fill="#0D0D0E"/>
<path d="M87.5616 34.5068V28.9625H89.9036C90.3063 28.9625 90.6587 29.0374 90.9607 29.1872C91.2628 29.337 91.4977 29.5527 91.6655 29.8342C91.8333 30.1158 91.9172 30.4533 91.9172 30.8467C91.9172 31.2438 91.8306 31.5786 91.6575 31.8511C91.4862 32.1236 91.2451 32.3294 90.9342 32.4683C90.6252 32.6073 90.264 32.6768 89.8507 32.6768H88.4518V31.5073H89.5539C89.727 31.5073 89.8745 31.4856 89.9964 31.4423C90.12 31.3972 90.2145 31.3259 90.2799 31.2284C90.347 31.131 90.3805 31.0037 90.3805 30.8467C90.3805 30.6879 90.347 30.5589 90.2799 30.4596C90.2145 30.3585 90.12 30.2845 89.9964 30.2376C89.8745 30.1889 89.727 30.1645 89.5539 30.1645H89.0346V34.5068H87.5616ZM90.7408 31.9621L92.0973 34.5068H90.4971L89.1724 31.9621H90.7408Z" fill="#0D0D0E"/>
<path d="M97.8014 31.7347C97.8014 32.3519 97.684 32.8726 97.4491 33.2967C97.2141 33.7191 96.8971 34.0394 96.4979 34.2578C96.0988 34.4744 95.6537 34.5827 95.1626 34.5827C94.6681 34.5827 94.2212 34.4735 93.8221 34.2551C93.4247 34.0349 93.1085 33.7136 92.8736 33.2913C92.6404 32.8672 92.5239 32.3483 92.5239 31.7347C92.5239 31.1174 92.6404 30.5977 92.8736 30.1753C93.1085 29.7512 93.4247 29.4309 93.8221 29.2143C94.2212 28.9959 94.6681 28.8867 95.1626 28.8867C95.6537 28.8867 96.0988 28.9959 96.4979 29.2143C96.8971 29.4309 97.2141 29.7512 97.4491 30.1753C97.684 30.5977 97.8014 31.1174 97.8014 31.7347ZM96.286 31.7347C96.286 31.4026 96.2427 31.1229 96.1562 30.8955C96.0714 30.6662 95.9451 30.493 95.7773 30.3757C95.6113 30.2566 95.4064 30.197 95.1626 30.197C94.9189 30.197 94.7131 30.2566 94.5453 30.3757C94.3793 30.493 94.253 30.6662 94.1665 30.8955C94.0817 31.1229 94.0393 31.4026 94.0393 31.7347C94.0393 32.0668 94.0817 32.3474 94.1665 32.5766C94.253 32.804 94.3793 32.9773 94.5453 33.0964C94.7131 33.2137 94.9189 33.2724 95.1626 33.2724C95.4064 33.2724 95.6113 33.2137 95.7773 33.0964C95.9451 32.9773 96.0714 32.804 96.1562 32.5766C96.2427 32.3474 96.286 32.0668 96.286 31.7347Z" fill="#0D0D0E"/>
<path d="M101.694 28.9625H103.167V32.5144C103.167 32.9367 103.068 33.3021 102.87 33.6108C102.674 33.9176 102.401 34.1549 102.049 34.3228C101.698 34.4888 101.29 34.5718 100.825 34.5718C100.357 34.5718 99.9472 34.4888 99.5957 34.3228C99.2442 34.1549 98.9705 33.9176 98.7744 33.6108C98.5801 33.3021 98.483 32.9367 98.483 32.5144V28.9625H99.956V32.3844C99.956 32.5559 99.9931 32.7093 100.067 32.8446C100.141 32.9782 100.244 33.0829 100.375 33.1587C100.507 33.2345 100.657 33.2724 100.825 33.2724C100.995 33.2724 101.145 33.2345 101.275 33.1587C101.406 33.0829 101.509 32.9782 101.583 32.8446C101.657 32.7093 101.694 32.5559 101.694 32.3844V28.9625Z" fill="#0D0D0E"/>
<path d="M103.867 34.5068V28.9625H106.209C106.612 28.9625 106.964 29.0437 107.266 29.2062C107.568 29.3686 107.803 29.5969 107.971 29.8911C108.139 30.1853 108.223 30.5291 108.223 30.9225C108.223 31.3196 108.136 31.6634 107.963 31.954C107.792 32.2445 107.551 32.4683 107.24 32.6254C106.931 32.7824 106.57 32.8609 106.156 32.8609H104.757V31.6914H105.859C106.033 31.6914 106.18 31.6607 106.302 31.5993C106.426 31.5362 106.52 31.4468 106.585 31.3313C106.653 31.2158 106.686 31.0795 106.686 30.9225C106.686 30.7637 106.653 30.6283 106.585 30.5164C106.52 30.4027 106.426 30.3161 106.302 30.2566C106.18 30.1952 106.033 30.1645 105.859 30.1645H105.34V34.5068H103.867Z" fill="#0D0D0E"/>
<path fill-rule="evenodd" clip-rule="evenodd" d="M8.43655 8.6863L0 24.6407H4.21828L5.59477 22.0703H12.344L12.8768 24.6407H17.0951L13.8537 8.6863H8.43655ZM15.985 3.85564L9.54662 6.64768L9.94625 3.7227L16.5179 0L15.985 3.85564ZM69.3573 18.3033H77.3498V14.6692H69.3573V12.3204H79.348V8.6863H65.2279V24.6407H79.6144V21.0067H69.3573V18.3033ZM86.8965 8.6863H82.767V24.6407H95.9547V21.0067H86.8965V8.6863ZM102.793 18.3033H110.785V14.6692H102.793V12.3204H112.783V8.6863H98.6632V24.6407H113.05V21.0067H102.793V18.3033ZM129.479 19.1453C128.68 20.4305 127.081 21.0953 124.772 21.0953C121.131 21.0953 119.355 19.943 119.355 16.6192C119.355 13.2954 121.131 12.1874 124.772 12.1874C127.037 12.1874 128.635 12.8522 129.434 14.1374L132.676 12.0101C130.9 9.70561 128.102 8.42039 124.728 8.42039C119.133 8.42039 115.092 11.567 115.092 16.6192C115.092 21.6714 119.133 24.818 124.728 24.818C128.102 24.818 130.9 23.5328 132.676 21.2282L129.479 19.1453ZM134.496 12.3204H139.914V24.6407H144.087V12.3204H149.505V8.6863H134.452V12.3204H134.496ZM168.243 14.4033C168.243 12.409 166.955 8.6863 162.159 8.6863H152.213V24.6407H156.343V20.5192H160.161L163.092 24.6407H167.976L164.779 20.1203C167.31 19.1453 168.243 16.5749 168.243 14.4033ZM164.335 14.7578C164.335 14.8465 164.335 16.8408 162.47 16.8408H156.343V12.276H162.115C164.113 12.3204 164.335 14.0487 164.335 14.7578ZM180.365 8.42039C174.77 8.42039 170.729 11.6113 170.729 16.6192C170.729 21.6714 174.77 24.818 180.365 24.818C185.959 24.818 190 21.6271 190 16.6192C190 11.6113 185.959 8.42039 180.365 8.42039ZM185.737 16.6635C185.737 19.9873 183.961 21.1396 180.32 21.1396C176.679 21.1396 174.903 19.9873 174.903 16.6635C174.903 13.3397 176.679 12.2317 180.32 12.2317C183.961 12.1874 185.737 13.3397 185.737 16.6635ZM11.5892 18.4362H7.50409L10.4791 12.8522L11.5892 18.4362ZM37.2984 14.4476C37.6093 12.4533 36.9432 8.73061 32.1477 8.73061H22.2014L19.6261 24.685H23.7555L24.4216 20.5635H28.2402L30.5048 24.685H35.3891L32.9025 20.1646C35.6111 19.1453 36.9432 16.6192 37.2984 14.4476ZM33.3022 14.8022C33.3022 14.8908 32.9469 16.8851 31.082 16.8851H24.9544L25.7093 12.3204H31.4816C33.5242 12.3204 33.4354 14.0488 33.3022 14.8022ZM39.6962 12.3204H45.1133L43.1152 24.6407H47.2891L49.2872 12.3204H54.7044L55.2816 8.6863H40.229L39.6962 12.3204Z" fill="#0D0D0E"/>
</svg>
