<svg width="18" height="18" viewBox="0 0 18 18" fill="none" xmlns="http://www.w3.org/2000/svg">
<path d="M0 7.03125H18V10.9688H0V7.03125Z" fill="#E6E7E8"/>
<path d="M15.1875 2.8125H2.8125C0.948656 2.8125 0 4.19766 0 5.90625V7.03125H18V5.90625C18 4.19766 17.0513 2.8125 15.1875 2.8125Z" fill="#1B75BB"/>
<path d="M0 12.0938C0 13.8023 0.948656 15.1875 2.8125 15.1875H15.1875C17.0513 15.1875 18 13.8023 18 12.0938V10.9688H0V12.0938Z" fill="#29B473"/>
<path d="M3.22063 6.27475C3.07625 6.27475 2.93327 6.2463 2.79988 6.19103C2.6665 6.13576 2.5453 6.05474 2.44323 5.95262C2.34116 5.8505 2.26021 5.72927 2.20501 5.59585C2.14981 5.46243 2.12143 5.31944 2.12151 5.17506C2.12143 4.88345 2.23718 4.60376 2.4433 4.39748C2.64942 4.1912 2.92903 4.07524 3.22063 4.07509C3.26226 4.07509 3.30388 4.07818 3.3441 4.08296C3.14886 3.96669 2.92588 3.90519 2.69863 3.90493C2.3664 3.91193 2.05014 4.04881 1.81765 4.28625C1.58516 4.52368 1.45496 4.84276 1.45496 5.17506C1.45496 5.50736 1.58516 5.82644 1.81765 6.06387C2.05014 6.3013 2.3664 6.43819 2.69863 6.44518C2.92584 6.44489 3.14878 6.3835 3.3441 6.26743C3.30388 6.27165 3.26254 6.27475 3.22063 6.27475ZM8.05532 3.90381L8.17598 4.15047L8.44879 4.1904L8.25276 4.3825L8.29888 4.65362L8.05532 4.52509L7.81148 4.65362L7.8576 4.3825L7.66129 4.1904L7.9341 4.15047L8.05532 3.90381ZM8.05532 4.7979L8.17598 5.04596L8.44879 5.08759L8.25276 5.27828L8.29888 5.54912L8.05532 5.42087L7.81148 5.54912L7.8576 5.27828L7.66129 5.08759L7.9341 5.04596L8.05532 4.7979ZM8.05532 5.69509L8.17598 5.94259L8.44879 5.98197L8.25276 6.17378L8.29888 6.4449L8.05532 6.31721L7.81148 6.4449L7.8576 6.17378L7.66129 5.98197L7.9341 5.94259L8.05532 5.69509ZM7.04254 3.90381L7.16544 4.15047L7.43741 4.1904L7.24054 4.3825L7.28666 4.65362L7.04254 4.52509L6.80066 4.65362L6.84594 4.3825L6.64963 4.1904L6.9216 4.15047L7.04254 3.90381ZM7.04254 4.7979L7.16544 5.04596L7.43741 5.08759L7.24054 5.27828L7.28666 5.54912L7.04254 5.42087L6.80066 5.54912L6.84594 5.27828L6.64963 5.08759L6.9216 5.04596L7.04254 4.7979ZM7.04254 5.69509L7.16544 5.94259L7.43741 5.98197L7.24054 6.17378L7.28666 6.4449L7.04254 6.31721L6.80066 6.4449L6.84594 6.17378L6.64963 5.98197L6.9216 5.94259L7.04254 5.69509ZM6.03144 3.90381L6.15294 4.15047L6.42576 4.1904L6.22691 4.3825L6.27529 4.65362L6.03144 4.52509L5.78732 4.65362L5.83457 4.3825L5.63629 4.1904L5.9091 4.15047L6.03144 3.90381ZM6.03144 4.7979L6.15294 5.04596L6.42576 5.08759L6.22691 5.27828L6.27529 5.54912L6.03144 5.42087L5.78732 5.54912L5.83457 5.27828L5.63629 5.08759L5.9091 5.04596L6.03144 4.7979ZM6.03144 5.69509L6.15294 5.94259L6.42576 5.98197L6.22691 6.17378L6.27529 6.4449L6.03144 6.31721L5.78732 6.4449L5.83457 6.17378L5.63629 5.98197L5.9091 5.94259L6.03144 5.69509ZM5.01951 4.7979L5.14129 5.04596L5.41354 5.08759L5.21666 5.27828L5.26363 5.54912L5.01951 5.42087L4.77566 5.54912L4.82348 5.27828L4.62491 5.08759L4.89801 5.04596L5.01951 4.7979ZM5.01951 5.69509L5.14129 5.94259L5.41354 5.98197L5.21666 6.17378L5.26363 6.4449L5.01951 6.31721L4.77566 6.4449L4.82348 6.17378L4.62491 5.98197L4.89801 5.94259L5.01951 5.69509ZM4.00223 5.69509L4.12401 5.94259L4.39682 5.98197L4.19966 6.17378L4.24691 6.4449L4.00223 6.31721L3.75838 6.4449L3.80507 6.17378L3.60819 5.98197L3.88044 5.94259L4.00223 5.69509Z" fill="#E6E7E8"/>
<path d="M0 7.03125H18V7.59375H0V7.03125ZM0 10.6875H18V11.25H0V10.6875Z" fill="#EC1C24"/>
</svg>
